<?xml version="1.0" encoding="UTF-8"?>
<svg width="28px" height="28px" viewBox="0 0 28 28" version="1.1" xmlns="http://www.w3.org/2000/svg" xmlns:xlink="http://www.w3.org/1999/xlink">
    <!-- Generator: Sketch 63.1 (92452) - https://sketch.com -->
    <title>fire</title>
    <desc>Created with Sketch.</desc>
    <g id="企业中心" stroke="none" stroke-width="1" fill="none" fill-rule="evenodd">
        <g id="帮助中心" transform="translate(-32.000000, -844.000000)">
            <g id="Group" transform="translate(32.000000, 808.000000)">
                <g id="fire" transform="translate(0.000000, 36.000000)">
                    <rect id="ic-cell" x="0" y="0" width="28" height="28"></rect>
                    <path d="M8.77773152,28 C6.94654779,24.097561 7.9103287,21.8536585 9.35600007,19.804878 C10.8980495,17.4634146 11.2835619,15.2195122 11.2835619,15.2195122 C11.2835619,15.2195122 12.5364771,16.7804878 12.0545866,19.3170732 C14.1749046,16.8780488 14.560417,12.9756098 14.2712827,11.5121951 C19.0901873,14.9268293 21.2105053,22.4390244 18.4155407,27.902439 C33.2577667,19.3170732 22.0779081,6.53658537 20.1503463,5.17073171 C20.824993,6.63414634 20.921371,9.07317073 19.5720778,10.2439024 C17.3553817,1.65853659 11.8618304,0 11.8618304,0 C12.5364771,4.3902439 9.54875625,9.17073171 6.65741351,12.7804878 C6.56103542,11.0243902 6.46465733,9.85365854 5.50087641,8.09756098 C5.30812023,11.3170732 2.89866795,13.8536585 2.22402131,17.0731707 C1.35661848,21.4634146 2.89866795,24.5853659 8.77773152,28 L8.77773152,28 Z" id="Path" fill="#EE4F46" fill-rule="nonzero"></path>
                </g>
            </g>
        </g>
    </g>
</svg>